<svg width="46" height="46" viewBox="0 0 46 46" fill="none" xmlns="http://www.w3.org/2000/svg">
<path d="M20.1999 10.7101C19.3781 10.7101 18.7861 11.3021 18.7861 12.1194C18.7861 12.9367 19.3826 13.5287 20.1999 13.5287C21.0216 13.5287 21.6136 12.9367 21.6136 12.1194C21.618 11.3065 21.0216 10.7101 20.1999 10.7101ZM37.602 14.9689C36.9924 14.3593 36.1574 14.0191 35.2517 14.0191C35.0794 14.0191 34.9248 14.0367 34.779 14.0633V14.0191H34.6199C34.377 12.6672 33.7982 11.3462 32.9367 10.1578C32.1106 9.02241 31.037 8.04164 29.8088 7.29059L30.9177 5.70898V5.56319C30.9177 5.52784 30.9354 5.46157 30.9487 5.39531C30.9752 5.28928 31.0105 5.15232 31.0105 5.00211C31.0105 4.1848 30.4141 3.5928 29.5968 3.5928C29.1638 3.5928 28.7353 3.84462 28.4525 4.27316L27.1581 6.1331C25.8327 5.70014 24.4013 5.47041 23.0141 5.47041C21.6313 5.47041 20.1999 5.70014 18.8701 6.1331L17.58 4.26874C17.2885 3.84462 16.8688 3.58838 16.4314 3.58838C15.6097 3.58838 15.0177 4.18038 15.0177 4.99769C15.0177 5.2716 15.1281 5.56319 15.3137 5.76641L16.3121 7.1934C15.0442 7.94444 13.9485 8.93405 13.1224 10.0695C12.2653 11.2579 11.7086 12.5788 11.501 13.9307H11.258V13.9749C11.1166 13.9484 10.962 13.9307 10.7853 13.9307C9.88846 13.9307 9.05347 14.2621 8.43938 14.8717C7.82971 15.4814 7.48953 16.312 7.48953 17.2132V27.5953C7.48953 28.4922 7.82088 29.3227 8.43497 29.9324C9.04464 30.5421 9.88404 30.8823 10.7853 30.8823C10.9576 30.8823 11.1122 30.8646 11.258 30.8381V34.9688C11.258 36.2589 12.3139 37.3147 13.6083 37.3147H15.0177V39.8904C15.0177 40.7872 15.349 41.6178 15.9631 42.2275C16.5728 42.8371 17.4122 43.1773 18.3134 43.1773C19.2103 43.1773 20.0452 42.846 20.6593 42.2363C21.269 41.6266 21.6092 40.7961 21.6092 39.8948V37.3236H24.4278V39.8904C24.4278 40.7872 24.7592 41.6178 25.3732 42.2275C25.9829 42.8371 26.8223 43.1773 27.7236 43.1773C28.6248 43.1773 29.4554 42.846 30.0695 42.223C30.6792 41.6134 31.0193 40.7828 31.0193 39.8815V37.3103H32.4287C33.7231 37.3103 34.779 36.2589 34.779 34.9644V30.9264C34.9204 30.9529 35.075 30.9706 35.2517 30.9706C36.1485 30.9706 36.9835 30.6393 37.5976 30.0296C38.2073 29.4199 38.5475 28.5894 38.5475 27.6881V17.306C38.5431 16.4092 38.2117 15.583 37.602 14.9689ZM11.2624 27.6925C11.2624 27.9929 11.0901 28.1608 10.7897 28.1608C10.4893 28.1608 10.317 27.9929 10.317 27.6925V17.306C10.317 17.0056 10.4893 16.8377 10.7897 16.8377C11.0901 16.8377 11.2624 17.0056 11.2624 17.306V27.6925ZM17.0543 10.1622C18.711 8.95614 20.8228 8.29346 23.0185 8.29346C25.2142 8.29346 27.326 8.96056 28.9827 10.1711C30.4141 11.2181 31.3772 12.5656 31.7527 14.0367H14.2843C14.6598 12.5612 15.6317 11.2093 17.0543 10.1622ZM18.7906 39.9699C18.764 40.2173 18.5962 40.3543 18.3267 40.3543C18.0263 40.3543 17.854 40.1864 17.854 39.886V37.3147H18.7906V39.9699ZM27.728 40.3543C27.4276 40.3543 27.2553 40.1864 27.2553 39.886V37.3147H28.1919V39.9699C28.1654 40.2173 28.0019 40.3543 27.728 40.3543ZM31.9604 34.4961H14.0855V16.8421H31.9604V34.4961ZM35.7244 27.6925C35.7244 27.9929 35.5521 28.1608 35.2517 28.1608C34.9513 28.1608 34.779 27.9929 34.779 27.6925V17.306C34.779 17.0056 34.9513 16.8377 35.2517 16.8377C35.5521 16.8377 35.7244 17.0056 35.7244 17.306V27.6925ZM25.846 10.7101C25.0242 10.7101 24.4322 11.3021 24.4322 12.1194C24.4322 12.9367 25.0287 13.5287 25.846 13.5287C26.6677 13.5287 27.2641 12.9367 27.2641 12.115C27.2597 11.2932 26.6721 10.7101 25.846 10.7101Z" fill="white"/>
</svg>
