<svg width="51" height="51" viewBox="0 0 51 51" fill="none" xmlns="http://www.w3.org/2000/svg">
<path d="M37.2248 26.6816C37.2049 23.2851 38.7437 20.7253 41.8514 18.8378C40.1133 16.3477 37.4838 14.9781 34.0175 14.7142C30.7356 14.4552 27.1449 16.6266 25.8301 16.6266C24.4406 16.6266 21.2633 14.8038 18.7632 14.8038C13.6037 14.8835 8.12054 18.9175 8.12054 27.1248C8.12054 29.5502 8.56377 32.0552 9.45025 34.635C10.6355 38.0315 14.9085 46.3534 19.3658 46.2189C21.6965 46.1641 23.345 44.5655 26.3779 44.5655C29.3212 44.5655 30.8452 46.2189 33.4448 46.2189C37.9419 46.1542 41.8066 38.5892 42.9321 35.1828C36.9011 32.3391 37.2248 26.8559 37.2248 26.6816ZM36.6969 39.9787C35.9847 40.9698 35.2676 41.7517 34.6102 42.2547C34.0873 42.6531 33.6839 42.8224 33.4149 42.8324C32.9667 42.8274 32.5334 42.7178 31.6868 42.3941C31.6271 42.3692 31.5623 42.3443 31.4776 42.3144L31.2585 42.2298C30.392 41.8961 29.874 41.7168 29.2117 41.5425C28.2853 41.3034 27.364 41.174 26.3779 41.174C25.3719 41.174 24.4257 41.2985 23.4844 41.5325C22.7922 41.7068 22.2095 41.9011 21.3579 42.2198C21.323 42.2347 20.9545 42.3742 20.8499 42.414C20.6756 42.4788 20.5411 42.5286 20.4166 42.5734C19.8987 42.7527 19.57 42.8274 19.2762 42.8324C19.2413 42.8324 19.2114 42.8274 19.1865 42.8224C19.1317 42.8124 19.062 42.7925 18.9823 42.7577C18.7582 42.668 18.4893 42.5037 18.1855 42.2696C17.4883 41.7268 16.7213 40.8752 15.9394 39.7845C14.5699 37.8621 13.275 35.3123 12.6525 33.5244C11.8856 31.2933 11.5071 29.1568 11.5071 27.1199C11.5071 24.1218 12.3935 21.8409 13.9175 20.292C15.2273 18.9673 16.9903 18.2252 18.7881 18.1854C19.0819 18.1904 19.5102 18.2601 20.0531 18.4095C20.4814 18.524 20.9495 18.6784 21.582 18.9025C21.7712 18.9723 22.4237 19.2063 22.5033 19.2362C22.8868 19.3757 23.1757 19.4753 23.4595 19.5649C24.3659 19.8538 25.0681 20.0131 25.8301 20.0131C26.602 20.0131 27.2644 19.8488 28.2057 19.5251C28.5593 19.4055 29.8441 18.9274 30.0732 18.8478C31.3482 18.3946 32.2894 18.1505 33.1012 18.0908C33.3402 18.0708 33.5544 18.0708 33.7586 18.0858C34.8891 18.1754 35.8552 18.3995 36.677 18.7731C34.8044 20.9345 33.8383 23.5789 33.8432 26.6617C33.8283 27.3938 33.8881 28.2404 34.0972 29.2414C34.416 30.7604 35.0235 32.2644 35.9847 33.6738C36.7168 34.7445 37.6232 35.7107 38.7089 36.5523C38.1362 37.7327 37.434 38.9528 36.6969 39.9787ZM31.9906 11.492C34.5156 8.49394 34.2865 5.76479 34.2118 4.78369C31.9806 4.91318 29.4009 6.30265 27.9317 8.01086C26.3132 9.84357 25.362 12.1096 25.5662 14.6644C27.9766 14.8487 30.1778 13.6086 31.9906 11.492Z" fill="white"/>
</svg>
