<svg width="43" height="42" viewBox="0 0 43 42" fill="none" xmlns="http://www.w3.org/2000/svg">
<g clip-path="url(#clip0)">
<path d="M32.3337 0.0966797H11.4129C5.64906 0.0966797 0.959717 4.77025 0.959717 10.5147V31.5359C0.959717 37.28 5.64906 41.9541 11.4129 41.9541H32.3337C38.0975 41.9541 42.7867 37.2799 42.7867 31.5359V10.5147C42.7867 4.77025 38.0975 0.0967216 32.3337 0.0967216V0.0966797ZM38.9153 31.5358C38.9153 35.1525 35.9629 38.0954 32.3337 38.0954H11.4129C7.78373 38.0954 4.8313 35.1525 4.8313 31.5358V17.959H13.1014C12.4977 19.2361 12.1581 20.6607 12.1581 22.1631C12.1581 27.62 16.6123 32.0588 22.0873 32.0588C27.5622 32.0588 32.0165 27.62 32.0165 22.1631C32.0165 20.6607 31.677 19.236 31.0731 17.959H38.9153V31.5358H38.9153ZM17.9655 22.1632C17.9655 19.8983 19.8145 18.0554 22.0874 18.0554C24.3603 18.0554 26.2092 19.8984 26.2092 22.1632C26.2092 24.4285 24.3603 26.2711 22.0874 26.2711C19.8145 26.2711 17.9655 24.4285 17.9655 22.1632ZM38.9153 14.1006H27.8334C26.2099 12.9483 24.2277 12.2676 22.0874 12.2676C19.947 12.2676 17.9645 12.9483 16.3414 14.1006H4.8313V10.5147C4.8313 6.89771 7.78373 3.95522 11.4129 3.95522H32.3337C35.9629 3.95522 38.9153 6.89771 38.9153 10.5147V14.1006H38.9154H38.9153ZM34.7201 6.29536H31.1314C30.4924 6.29536 29.9699 6.81629 29.9699 7.45291V11.0298C29.9699 11.6663 30.4924 12.1873 31.1314 12.1873H34.7201C35.3591 12.1873 35.8816 11.6663 35.8816 11.0298V7.45291C35.8816 6.81629 35.3591 6.29536 34.7201 6.29536Z" fill="white"/>
</g>
<defs>
<clipPath id="clip0">
<rect x="0.0760574" y="0.0507812" width="41.9493" height="41.9493" fill="white"/>
</clipPath>
</defs>
</svg>
