<svg width="48" height="42" viewBox="0 0 48 42" fill="none" xmlns="http://www.w3.org/2000/svg">
<g clip-path="url(#clip0)">
<path d="M31.8668 4.49833C34.3516 4.49833 36.4481 5.37227 38.1563 7.12016C40.082 6.74561 41.8834 6.07455 43.5606 5.10697C42.9084 7.10456 41.666 8.63396 39.8335 9.69517C41.5418 9.5079 43.1724 9.07093 44.7254 8.38426C44.3526 8.94608 43.9411 9.48449 43.4907 9.99949C43.0404 10.5145 42.559 10.9983 42.0465 11.4509C41.534 11.9034 40.9982 12.3326 40.4392 12.7384C40.4702 13.1129 40.4858 13.4719 40.4858 13.8152C40.4858 15.6567 40.2451 17.5138 39.7636 19.3866C39.2822 21.2593 38.5834 23.0852 37.6671 24.8643C36.7509 26.6434 35.5862 28.2977 34.173 29.8271C32.7598 31.3565 31.1757 32.6986 29.4209 33.8535C27.666 35.0083 25.6472 35.9135 23.3643 36.5689C21.0815 37.2244 18.6666 37.5521 16.1198 37.5521C11.3677 37.5521 6.98834 36.3036 2.98169 33.8067C3.32334 33.8379 3.65723 33.8691 3.98335 33.9003C4.30948 33.9315 4.65889 33.9471 5.0316 33.9471C9.00719 33.9471 12.5479 32.7454 15.6539 30.3421C13.7903 30.3109 12.1286 29.7569 10.6689 28.68C9.20907 27.6032 8.19965 26.2221 7.64058 24.5366C7.82694 24.5678 8.00553 24.599 8.17635 24.6302C8.34718 24.6615 8.52577 24.6849 8.71213 24.7005C8.89848 24.7161 9.08484 24.7239 9.27119 24.7239C10.0477 24.7239 10.7931 24.6146 11.5075 24.3962C9.55073 24.0216 7.92012 23.0696 6.61563 21.5402C5.31114 20.0108 4.65889 18.2317 4.65889 16.2029V16.1093C5.8702 16.7648 7.15916 17.1081 8.52577 17.1393C7.74929 16.6399 7.08152 16.0391 6.52245 15.3368C5.96338 14.6345 5.52079 13.8386 5.19466 12.9491C4.86854 12.0595 4.70548 11.1465 4.70548 10.2102C4.70548 9.46108 4.80642 8.72759 5.00831 8.00971C5.21019 7.29183 5.49749 6.62077 5.8702 5.99652C8.01329 8.58714 10.6145 10.6471 13.6738 12.1765C16.7332 13.706 20.0177 14.5643 23.5274 14.7516C23.3721 14.1273 23.2945 13.4875 23.2945 12.832C23.2945 10.5223 24.1331 8.55593 25.8103 6.93289C27.4875 5.30985 29.5063 4.49833 31.8668 4.49833ZM31.8668 1.50195C28.9783 1.50195 26.447 2.44612 24.2728 4.33447C22.0987 6.22281 20.8252 8.55593 20.4525 11.3338C15.452 10.335 11.3522 7.91607 8.15306 4.07697C7.56293 3.35908 6.80198 3.00014 5.8702 3.00014L5.63726 3.04696C4.6123 3.10939 3.83582 3.57757 3.30781 4.45151C2.2518 6.23061 1.72379 8.15017 1.72379 10.2102C1.72379 11.5523 1.95674 12.8476 2.42263 14.0961C1.92568 14.6891 1.6772 15.3602 1.6772 16.1093V16.2029C1.6772 19.1681 2.70216 21.7431 4.75207 23.928C4.68995 24.1777 4.66666 24.4352 4.68219 24.7005C4.69772 24.9658 4.73654 25.2233 4.79866 25.473C5.48196 27.5018 6.63116 29.2028 8.24624 30.5762C7.71823 30.701 7.18246 30.7947 6.63892 30.8571C6.09538 30.9195 5.55961 30.9507 5.0316 30.9507C4.41042 30.9507 3.83582 30.9195 3.30781 30.8571L2.98169 30.8103C2.32945 30.8103 1.74709 30.9975 1.23461 31.3721C0.72213 31.7466 0.357184 32.2304 0.139769 32.8235C-0.0776462 33.4789 -0.0698814 34.1422 0.163063 34.8132C0.396008 35.4843 0.807543 35.9915 1.39767 36.3348C5.8702 39.144 10.7776 40.5485 16.1198 40.5485C19.412 40.5485 22.518 40.0569 25.4375 39.0737C28.3571 38.0905 30.8884 36.7406 33.0315 35.0239C35.1746 33.3073 37.0304 31.3331 38.5989 29.1014C40.1674 26.8697 41.3632 24.482 42.1863 21.9382C43.0093 19.3944 43.4364 16.8116 43.4675 14.1897C44.8651 13.0349 46.0764 11.7084 47.1014 10.2102C47.3188 9.96048 47.4741 9.67957 47.5673 9.36744C47.6605 9.05532 47.707 8.72759 47.707 8.38426C47.707 7.35425 47.2877 6.54273 46.4491 5.9497C46.5423 5.54394 46.5734 5.15379 46.5423 4.77924C46.5113 4.40469 46.4026 4.03795 46.2162 3.67901C46.0298 3.32007 45.7814 3.01575 45.4708 2.76605C44.9117 2.32908 44.275 2.11059 43.5606 2.11059C43.4364 2.11059 43.3122 2.1184 43.1879 2.134C43.0637 2.14961 42.9394 2.17302 42.8152 2.20423C42.691 2.23544 42.5667 2.27446 42.4425 2.32128C42.3183 2.36809 42.194 2.42272 42.0698 2.48514C41.1069 3.07817 40.0665 3.53075 38.9483 3.84287C36.8363 2.28226 34.4758 1.50195 31.8668 1.50195Z" fill="white"/>
</g>
<defs>
<clipPath id="clip0">
<rect y="0.0507812" width="47.707" height="41.9493" fill="white"/>
</clipPath>
</defs>
</svg>
